<svg xmlns="http://www.w3.org/2000/svg" width="621.821" height="49.444" fill="#fff" viewBox="0 0 621.82062 49.443619"><g fill="#fff"><path d="M62.12 3.8c1.04-.02 2.13.8 2.55 2.14.15.53.1 1.27.43 1.57 2.02 1.87 5.34 1.63 6.04 4.9.15.74 2 2.3 2.95 3.18.8.78 2 2.14 1.77 2.87-.5 1.66-1.15 3.65-3.64 3.6-3.64-.06-7.3-.04-10.94 0-4.67.04-7.45 2.82-7.5 7.53-.06 3.82.06 7.65-.04 11.48-.08 3.02 1.25 4.68 4.18 5.36.93.23 1.5 1.1.84 1.9-.8 1-4.3 1-4.4 1-2.78.32-6.48-.7-8.76-6.4-1.3 1.7-2.22 2.55-3.42 2.93-.7.23-4.17 1.1-4.3.32-.25-1.45 3.9-5.04 4.07-6.5.3-2.85-2.16-3.9-5.03-4.62-2.9-.73-6 .58-7.3 1.96-1.8 1.9-1.7 7.78-.76 8.27.52.26 1.47.8 1.5 1.6.02.6-.75 1.5-1.2 1.52-2.5.15-5.02.24-7.47-.07-.65-.08-1.6-1.66-1.6-2.54.04-2.88-5.5-7.9-6.4-6.6-1.52 2.15-6.04 3.22-5.5 6.03.34 1.8 3.9.6 4.25 2.03.76 3.18-6.8 2.1-9.87 1.7-2.58-.35-3.63-1.85-1.32-6.9C4 36.9 4.42 31.63 3.96 25.86 2.98 13.4 11.46 4.76 24 5.08c10.9.25 21.9-.2 32.7 1.3 6.1.83 2.72.1 3.77-1.58.42-.68 1.03-1 1.65-1z"/><g style="line-height:125%;-inkscape-font-specification:Open Sans" font-size="64" letter-spacing="0" word-spacing="0" font-family="Open Sans" font-weight="bold"><path d="M95.5 2.94h14.23c6.48 0 11.18.92 14.1 2.76 2.93 1.85 4.4 4.78 4.4 8.8 0 2.73-.64 4.97-1.92 6.72-1.27 1.75-2.97 2.8-5.1 3.16v.3c2.9.65 5 1.86 6.27 3.63 1.28 1.8 1.92 4.15 1.92 7.08 0 4.17-1.5 7.42-4.5 9.76-3.03 2.33-7.1 3.5-12.3 3.5H95.5zm9.7 18.1h5.62c2.63 0 4.53-.4 5.7-1.23 1.18-.8 1.77-2.13 1.77-4 0-1.76-.66-3-1.94-3.77-1.28-.76-3.3-1.14-6.08-1.14h-5.1zm0 7.68v11.9h6.3c2.67 0 4.64-.5 5.9-1.53 1.3-1.04 1.92-2.6 1.92-4.7 0-3.8-2.7-5.7-8.12-5.7zM152.23 19.8c-2.02 0-3.6.65-4.75 1.93-1.15 1.3-1.8 3.1-1.97 5.46h13.4c-.05-2.38-.66-4.2-1.85-5.48-1.2-1.28-2.8-1.92-4.8-1.92zm1.34 29.45c-5.62 0-10.02-1.55-13.2-4.66-3.15-3.1-4.74-7.5-4.74-13.2 0-5.86 1.47-10.38 4.4-13.58 2.92-3.2 6.97-4.8 12.13-4.8 4.94 0 8.8 1.4 11.54 4.22 2.75 2.8 4.12 6.7 4.12 11.66v4.63H145.3c.1 2.7.9 4.82 2.4 6.34 1.5 1.53 3.6 2.3 6.3 2.3 2.1 0 4.1-.23 5.98-.67 1.87-.44 3.83-1.14 5.87-2.1v7.38c-1.66.83-3.45 1.45-5.34 1.86-1.9.4-4.2.6-6.92.6zM197.82 48.63l-1.84-4.76h-.25c-1.6 2.03-3.26 3.43-4.96 4.2-1.7.8-3.9 1.18-6.64 1.18-3.35 0-6-.96-7.92-2.88-1.9-1.9-2.87-4.64-2.87-8.18 0-3.73 1.3-6.47 3.9-8.23 2.58-1.76 6.5-2.73 11.73-2.92l6.06-.18v-1.54c0-3.54-1.8-5.3-5.43-5.3-2.8 0-6.08.84-9.85 2.52l-3.16-6.43c4-2.1 8.47-3.16 13.37-3.16 4.68 0 8.28 1.02 10.78 3.06s3.75 5.15 3.75 9.3v23.3zm-2.8-16.2l-3.7.13c-2.77.1-4.83.6-6.2 1.5-1.34.92-2.02 2.32-2.02 4.2 0 2.68 1.54 4.02 4.63 4.02 2.2 0 3.97-.63 5.3-1.9 1.32-1.28 1.98-2.96 1.98-5.07zM233.76 13.03c1.3 0 2.36.1 3.22.28l-.72 8.96c-.77-.2-1.7-.3-2.8-.3-3.06 0-5.43.77-7.12 2.33-1.7 1.55-2.55 3.74-2.55 6.55v17.8h-9.55V13.7h7.22l1.4 5.86h.47c1.1-1.96 2.55-3.53 4.4-4.73 1.84-1.2 3.84-1.8 6-1.8zM270.3 48.63h-9.54V2.93h26.2v7.94H270.3v11.78h15.5v7.9h-15.5zM314.63 13.03c1.3 0 2.37.1 3.22.28l-.72 8.96c-.77-.2-1.7-.3-2.8-.3-3.05 0-5.42.77-7.12 2.33-1.7 1.55-2.53 3.74-2.53 6.55v17.8h-9.53V13.7h7.22l1.4 5.86h.48c1.08-1.96 2.54-3.53 4.4-4.73 1.83-1.2 3.84-1.8 6-1.8zM346.45 48.63l-1.85-4.76h-.25c-1.6 2.03-3.25 3.43-4.95 4.2-1.7.8-3.9 1.18-6.64 1.18-3.36 0-6-.96-7.92-2.88-1.93-1.9-2.9-4.64-2.9-8.18 0-3.73 1.3-6.47 3.9-8.23 2.6-1.76 6.5-2.73 11.73-2.92l6.06-.18v-1.54c0-3.54-1.8-5.3-5.43-5.3-2.8 0-6.08.84-9.85 2.52l-3.15-6.43c4.02-2.1 8.47-3.16 13.37-3.16 4.7 0 8.28 1.02 10.78 3.06s3.75 5.15 3.75 9.3v23.3zm-2.82-16.2l-3.68.13c-2.78.1-4.84.6-6.2 1.5-1.35.92-2.02 2.32-2.02 4.2 0 2.68 1.54 4.02 4.62 4.02 2.2 0 3.98-.63 5.3-1.9 1.32-1.28 1.98-2.96 1.98-5.07zM394.16 48.63h-9.53v-20.4c0-2.53-.42-4.42-1.26-5.68-.85-1.26-2.17-1.9-4-1.9-2.42 0-4.2.9-5.3 2.7-1.1 1.8-1.66 4.73-1.66 8.84v16.4h-9.5V13.7h7.27l1.3 4.46h.52c.92-1.6 2.3-2.86 4.05-3.77 1.77-.93 3.8-1.38 6.1-1.38 5.22 0 8.76 1.7 10.62 5.13h.84c.95-1.63 2.33-2.9 4.15-3.8 1.83-.88 3.88-1.33 6.17-1.33 3.97 0 6.97 1.02 9 3.05 2.03 2.03 3.05 5.28 3.05 9.76v22.8h-9.57v-20.4c0-2.54-.42-4.43-1.26-5.7-.85-1.25-2.17-1.9-4-1.9-2.32 0-4.07.85-5.22 2.5-1.16 1.68-1.74 4.33-1.74 7.95zM440.23 19.8c-2.02 0-3.6.65-4.75 1.93-1.15 1.3-1.8 3.1-1.97 5.46h13.4c-.05-2.38-.66-4.2-1.85-5.48-1.2-1.28-2.8-1.92-4.8-1.92zm1.34 29.45c-5.62 0-10.02-1.55-13.2-4.66-3.15-3.1-4.74-7.5-4.74-13.2 0-5.86 1.47-10.38 4.4-13.58 2.92-3.2 6.97-4.8 12.13-4.8 4.94 0 8.8 1.4 11.54 4.22 2.75 2.8 4.12 6.7 4.12 11.66v4.63H433.3c.1 2.7.9 4.82 2.4 6.34 1.5 1.53 3.6 2.3 6.3 2.3 2.1 0 4.1-.23 5.98-.67 1.87-.44 3.83-1.14 5.87-2.1v7.38c-1.66.83-3.45 1.45-5.34 1.86-1.9.4-4.2.6-6.92.6zM492.35 48.63l-2.7-12.22-3.6-15.42h-.23l-6.37 27.66H469.2l-9.94-34.94h9.5l4.03 15.46c.63 2.77 1.3 6.6 1.95 11.46h.2c.07-1.58.43-4.1 1.08-7.53l.5-2.67 4.3-16.75h10.5l4.1 16.74c.1.46.22 1.13.4 2.03.17.9.35 1.85.5 2.86.18 1 .33 2 .47 2.98.14.97.22 1.74.24 2.33h.2c.17-1.5.5-3.55 1-6.17.47-2.6.8-4.38 1.02-5.3l4.2-15.46h9.33L502.7 48.6zM525.98 31.1c0 3.45.56 6.07 1.7 7.84 1.14 1.77 2.98 2.65 5.55 2.65 2.54 0 4.37-.9 5.48-2.66 1.14-1.76 1.7-4.38 1.7-7.86 0-3.46-.57-6.06-1.7-7.8-1.12-1.72-2.96-2.58-5.53-2.58-2.54 0-4.37.86-5.5 2.58-1.12 1.72-1.68 4.3-1.68 7.8zm24.15 0c0 5.68-1.5 10.13-4.5 13.34-3 3.2-7.17 4.8-12.53 4.8-3.35 0-6.3-.72-8.87-2.2-2.57-1.46-4.53-3.57-5.9-6.32-1.38-2.75-2.07-5.96-2.07-9.63 0-5.7 1.5-10.16 4.47-13.33 2.98-3.17 7.16-4.75 12.56-4.75 3.33 0 6.3.73 8.85 2.2 2.57 1.45 4.54 3.54 5.9 6.27 1.4 2.72 2.07 5.92 2.07 9.6zM577.5 13.03c1.3 0 2.37.1 3.23.28l-.72 8.96c-.75-.2-1.7-.3-2.8-.3-3.04 0-5.4.77-7.1 2.33-1.7 1.55-2.55 3.74-2.55 6.55v17.8H558V13.7h7.23l1.4 5.86h.47c1.1-1.96 2.55-3.53 4.4-4.73 1.84-1.2 3.84-1.8 6-1.8zM596.3 29.63l4.15-5.32 9.78-10.6h10.75L607.1 28.84l14.72 19.8h-11l-10.06-14.17-4.1 3.28v10.88h-9.53V0h9.53v21.7l-.5 7.93z" style="-inkscape-font-specification:Open Sans Bold"/></g></g></svg>